# xmcd CD database file
#
# Track frame offsets:
#	150
#	4909
#	25278
#	42622
#	62587
#	65509
#	91079
#	98078
#	115856
#	132974
#	153200
#	158882
#	182567
#	200936
#	220324
#
# Disc length: 3164 seconds
#
# Revision: 2
# Processed by: cddbd v1.4PL0 Copyright (c) Steve Scherf et al.
# Submitted via: CDex 1.50beta8
#
DISCID=ce0c5a0f
DTITLE=Shadows On A Flat Land - Shadows On A Flat Land
DYEAR=1907
DGENRE=Trip-Hop
TTITLE0=Dark and Dreary (Part 1)
TTITLE1=Land of Freezing Days
TTITLE2=The Deep Sleep Song
TTITLE3=Nothing
TTITLE4=Water (Interlude)
TTITLE5=The Wreckers Light
TTITLE6=Wanderings
TTITLE7=Look/Learn
TTITLE8=Take Me Away
TTITLE9=Face Down
TTITLE10=Calling (Interlude)
TTITLE11=Who's There (Trad.)
TTITLE12=Doin' it on My Shadow
TTITLE13=Garbonzo Beans
TTITLE14=Dark and Dreary (Part 2)
EXTD=
EXTT0=
EXTT1=
EXTT2=
EXTT3=
EXTT4=
EXTT5=
EXTT6=
EXTT7=
EXTT8=
EXTT9=
EXTT10=
EXTT11=
EXTT12=
EXTT13=
EXTT14=
PLAYORDER=
